<?xml version="1.0" encoding="UTF-8"?>
<svg id="Layer_1" xmlns="http://www.w3.org/2000/svg" version="1.1" viewBox="0 0 800.9 956.9">
  <!-- Generator: Adobe Illustrator 30.6.0, SVG Export Plug-In . SVG Version: 2.1.4 Build 109)  -->
  <defs>
    <style>
      .st0 {
        fill: #fff;
      }
    </style>
  </defs>
  <path d="M800.6,407.1l-2.4,1.2v200.4c0,28.8-12,122.4-49.2,159.6-15.6,16.8-30,52.8-36,69.6v118.8h-453.6l-2.4-26.4c-4.8-50.4-24-129.6-49.2-148.8-48-36-102-135.6-114-158.4-13.2-14.4-67.2-74.4-88.8-134.4-12-33.6-1.2-68.4,30-91.2,32.4-24,88.8-36,118.8-13.2,14.4,9.6,39.6,36,62.4,60V101.1c0-8.4,0-44.4,25.2-72C254.6,15.9,277.4.3,317,.3s61.2,15.6,73.2,28.8c27.6,28.8,26.4,69.6,26.4,79.2v97.2c37.2,3.6,67.2,13.2,91.2,30,9.6,7.2,18,14.4,22.8,20.4,52.8,1.2,93.6,12,120,32.4,9.6,7.2,15.6,14.4,20.4,21.6,46.8,3.6,82.8,18,105.6,44.4,21.6,24,24,48,24,52.8ZM745.4,606.3v-195.6c-1.2-6-9.6-33.6-61.2-40.8v87.6h-58.8v-114c-4.8-7.2-24-22.8-74.4-27.6v99.6h-58.8v-112.8l-2.4-6c-2.4-3.6-18-26.4-72-32.4v151.2h-58.8V104.7c0-7.2-1.2-26.4-10.8-37.2-7.2-6-16.8-9.6-30-9.6s-26.4,3.6-32.4,10.8c-8.4,8.4-9.6,24-9.6,28.8v498l-51.6-57.6c-31.2-34.8-86.4-93.6-104.4-108-7.2-2.4-37.2,1.2-52.8,15.6-8.4,8.4-8.4,14.4-6,21.6,20.4,55.2,79.2,115.2,79.2,116.4l4.8,7.2c15.6,31.2,64.8,116.4,99.6,142.8,25.2,19.2,44.4,56.4,58.8,114,4.8,18,7.2,34.8,9.6,48h343.2v-69.6l1.2-3.6c1.2-6,20.4-66,51.6-97.2,18-18,32.4-84,32.4-118.8h3.6Z"/>
  <path class="st0" d="M745.4,410.7v195.6h-3.6c0,34.8-14.4,100.8-32.4,118.8-31.2,31.2-50.4,91.2-51.6,97.2l-1.2,3.6v69.6h-343.2c-2.4-13.2-4.8-30-9.6-48-14.4-57.6-33.6-94.8-58.8-114-34.8-26.4-84-111.6-99.6-142.8l-4.8-7.2c0-1.2-58.8-61.2-79.2-116.4-2.4-7.2-2.4-13.2,6-21.6,15.6-14.4,45.6-18,52.8-15.6,18,14.4,73.2,73.2,104.4,108l51.6,57.6V97.5c0-4.8,1.2-20.4,9.6-28.8,6-7.2,16.8-10.8,32.4-10.8s22.8,3.6,30,9.6c9.6,10.8,10.8,30,10.8,37.2v310.8h58.8v-151.2c54,6,69.6,28.8,72,32.4l2.4,6v112.8h58.8v-99.6c50.4,4.8,69.6,20.4,74.4,27.6v114h58.8v-87.6c51.6,7.2,60,34.8,61.2,40.8Z"/>
</svg>